<?xml version="1.0" encoding="UTF-8" standalone="no"?>
<svg
   xmlns:dc="http://purl.org/dc/elements/1.1/"
   xmlns:cc="http://creativecommons.org/ns#"
   xmlns:rdf="http://www.w3.org/1999/02/22-rdf-syntax-ns#"
   xmlns:svg="http://www.w3.org/2000/svg"
   xmlns="http://www.w3.org/2000/svg"
   xmlns:sodipodi="http://sodipodi.sourceforge.net/DTD/sodipodi-0.dtd"
   xmlns:inkscape="http://www.inkscape.org/namespaces/inkscape"
   width="500"
   height="500"
   version="1.1"
   viewBox="0 0 500.00001 500.00001"
   id="svg38"
   sodipodi:docname="canDraw.svg"
   inkscape:version="0.92.4 (5da689c313, 2019-01-14)">
  <metadata
     id="metadata44">
    <rdf:RDF>
      <cc:Work
         rdf:about="">
        <dc:format>image/svg+xml</dc:format>
        <dc:type
           rdf:resource="http://purl.org/dc/dcmitype/StillImage" />
      </cc:Work>
    </rdf:RDF>
  </metadata>
  <defs
     id="defs42" />
  <sodipodi:namedview
     pagecolor="#ffffff"
     bordercolor="#666666"
     borderopacity="1"
     objecttolerance="10"
     gridtolerance="10"
     guidetolerance="10"
     inkscape:pageopacity="0"
     inkscape:pageshadow="2"
     inkscape:window-width="1920"
     inkscape:window-height="1001"
     id="namedview40"
     showgrid="false"
     inkscape:zoom="1.616"
     inkscape:cx="250"
     inkscape:cy="250"
     inkscape:window-x="-9"
     inkscape:window-y="-9"
     inkscape:window-maximized="1"
     inkscape:current-layer="svg38" />
  <g
     transform="translate(0 -552.36)"
     fill="#555"
     id="g36">
    <path
       d="m269.73 630.56c-94.886-10.895-180.64 57.194-191.53 152.08-10.895 94.886 57.194 180.64 152.08 191.53s180.64-57.194 191.53-152.08c10.895-94.886-57.194-180.64-152.08-191.53zm-1.7746 15.455c86.351 9.915 148.31 87.953 138.4 174.3-9.915 86.351-87.953 148.31-174.3 138.4-86.351-9.915-148.31-87.953-138.4-174.3 9.915-86.351 87.953-148.31 174.3-138.4z"
       id="path28" />
    <g
       transform="matrix(1.5749 0 0 1.5749 -204.86 -430.34)"
       id="g34">
      <path
         transform="translate(0 552.36)"
         d="m303.57 167.92c-1.0038 0.0702-1.953 0.6237-2.4961 1.5644l-2.0039 3.4688 33.439 19.307 2.0039-3.4688c0.86903-1.5052 0.35676-3.4181-1.1484-4.2871l-28.006-16.168c-0.56445-0.32588-1.1868-0.45812-1.7891-0.41601zm-6.5859 8.6465-42.156 73.018 33.439 19.305 42.156-73.016-33.439-19.307zm-44.242 76.631-1.9863 3.4394c-0.86903 1.5052-0.35677 3.4161 1.1484 4.2852l28.006 16.168c1.5052 0.86903 3.4161 0.35676 4.2852-1.1484l1.9863-3.4394-33.439-19.305z"
         id="path30" />
      <path
         d="m249 850.66c-1.0612-0.61275-0.68138-3.6463-0.68138-3.6463l0.59844-5.8633 0.59864-5.8636 0.59845-5.863 0.59855-5.8633 0.59844-5.8633 0.59864-5.8633 0.59845-5.8633 4.18 2.4133 4.18 2.4133 4.18 2.4133 4.18 2.4133 4.18 2.4133 4.18 2.4133 4.18 2.4133 4.18 2.4133-4.7784 3.45-4.7786 3.45-4.7784 3.45-4.7785 3.45-4.7784 3.45-4.7786 3.45-4.7784 3.45s-2.4374 1.8458-3.4986 1.233z"
         id="path32" />
    </g>
  </g>
  <path
     style="fill:#ffffff;stroke-width:0.61881191"
     d="m 223.38126,295.47526 c -18.33994,-10.60017 -25.65958,-15.13869 -25.63134,-15.89267 0.0353,-0.94228 64.11,-112.52501 65.13554,-113.4301 0.23045,-0.20338 11.83607,6.25836 25.79028,14.35943 13.95421,8.10107 25.63282,14.82897 25.95248,14.95089 0.39005,0.14877 -62.41833,110.17086 -65.49986,114.73679 -0.0419,0.0621 -11.62813,-6.56382 -25.7471,-14.72434 z"
     id="path46"
     inkscape:connector-curvature="0" />
  <path
     style="fill:#ffffff;stroke-width:0.61881191"
     d="m 186.62676,355.25864 c -0.21373,-0.85155 0.89306,-14.10081 2.45952,-29.44279 2.60561,-25.51936 2.76471,-27.98666 1.86855,-28.97692 -0.53877,-0.59533 -0.97958,-1.83553 -0.97958,-2.756 0,-1.87681 2.89405,-8.0162 3.5802,-7.59497 0.24314,0.14926 11.85915,6.86792 25.81336,14.93035 13.95421,8.06243 25.49856,14.78426 25.65412,14.9374 0.52694,0.51874 -2.74909,5.93459 -4.15763,6.87329 -0.83303,0.55516 -2.08885,0.79485 -3.10238,0.59215 -1.46009,-0.29202 -3.8627,1.22083 -16.85539,10.61331 -28.93777,20.91927 -31.04691,22.37247 -32.47089,22.37247 -1.00026,0 -1.5364,-0.45864 -1.80988,-1.54829 z"
     id="path48"
     inkscape:connector-curvature="0" />
  <path
     style="fill:#ffffff;stroke-width:0.61881191"
     d="m 293.00743,174.83561 c -13.95421,-8.12281 -25.61695,-14.86011 -25.91719,-14.97177 -0.69323,-0.25781 0.93911,-3.44 3.05368,-5.95302 1.02993,-1.224 2.19703,-1.93062 3.18873,-1.93062 1.76639,0 46.27126,25.36549 47.98542,27.34923 1.52905,1.76951 1.34607,3.42167 -0.79184,7.14953 -1.02473,1.78682 -1.92713,3.221 -2.00533,3.18708 -0.0782,-0.0339 -11.55927,-6.70763 -25.51347,-14.83043 z"
     id="path50"
     inkscape:connector-curvature="0" />
  <path
     style="fill:#ffffff;stroke-width:0.61881191"
     d="M 233.91089,422.01015 C 189.50119,416.62987 155.3542,400.09182 125.89119,369.69413 107.08489,350.29121 93.675819,327.87616 85.420565,302.04208 75.240996,270.18603 74.77914,234.59806 84.12358,202.10396 100.36368,145.6311 145.26156,100.65611 201.79967,84.225786 217.987,79.521648 232.31228,77.540006 250,77.558145 c 13.72535,0.01408 23.43097,0.997698 36.17635,3.666317 43.64666,9.138706 82.60665,35.735238 107.7258,73.540388 33.63678,50.62448 38.01586,115.49657 11.48724,170.17327 -8.59813,17.72114 -17.86786,30.98405 -31.30411,44.78918 -27.15987,27.90551 -60.22869,45.0432 -98.71399,51.15785 -6.24797,0.99269 -35.90923,1.79754 -41.4604,1.125 z m 38.98515,-15.98318 c 20.75831,-3.23682 43.18772,-11.44602 60.02475,-21.96913 20.1901,-12.61878 39.56959,-32.06466 51.51749,-51.69398 37.55304,-61.69628 28.72574,-140.71228 -21.45543,-192.05429 -21.60304,-22.10279 -47.52088,-36.85785 -76.78235,-43.712319 -13.76174,-3.22367 -18.70302,-3.716336 -36.81931,-3.671031 -15.60167,0.03902 -17.76377,0.178372 -25.9901,1.675166 -33.75063,6.140974 -62.82658,21.486624 -86.01706,45.397914 -12.93425,13.33626 -20.77484,24.38051 -28.49419,40.13684 -5.78221,11.80234 -8.59309,19.26043 -11.428254,30.32248 -5.733494,22.37057 -6.57329,45.75782 -2.444225,68.06861 12.296749,66.44365 65.949549,118.07802 132.406009,127.42484 10.3623,1.45742 10.80103,1.47951 25.37128,1.27714 8.6246,-0.11979 15.9951,-0.56039 20.11139,-1.20224 z"
     id="path52"
     inkscape:connector-curvature="0" />
</svg>
