<?xml version="1.0" encoding="UTF-8" standalone="no"?>
<svg
   xmlns:dc="http://purl.org/dc/elements/1.1/"
   xmlns:cc="http://creativecommons.org/ns#"
   xmlns:rdf="http://www.w3.org/1999/02/22-rdf-syntax-ns#"
   xmlns:svg="http://www.w3.org/2000/svg"
   xmlns="http://www.w3.org/2000/svg"
   xmlns:sodipodi="http://sodipodi.sourceforge.net/DTD/sodipodi-0.dtd"
   xmlns:inkscape="http://www.inkscape.org/namespaces/inkscape"
   viewBox="0 0 60 60"
   version="1.1"
   id="svg4"
   sodipodi:docname="new-layer.svg"
   inkscape:version="0.92.4 (5da689c313, 2019-01-14)">
  <metadata
     id="metadata10">
    <rdf:RDF>
      <cc:Work
         rdf:about="">
        <dc:format>image/svg+xml</dc:format>
        <dc:type
           rdf:resource="http://purl.org/dc/dcmitype/StillImage" />
      </cc:Work>
    </rdf:RDF>
  </metadata>
  <defs
     id="defs8" />
  <sodipodi:namedview
     pagecolor="#ffffff"
     bordercolor="#666666"
     borderopacity="1"
     objecttolerance="10"
     gridtolerance="10"
     guidetolerance="10"
     inkscape:pageopacity="0"
     inkscape:pageshadow="2"
     inkscape:window-width="1920"
     inkscape:window-height="1001"
     id="namedview6"
     showgrid="false"
     inkscape:zoom="3.9333333"
     inkscape:cx="30"
     inkscape:cy="30"
     inkscape:window-x="-9"
     inkscape:window-y="-9"
     inkscape:window-maximized="1"
     inkscape:current-layer="svg4" />
  <path
     d="m23.518 23.955v-14.301c0-2.0006 0.54704-3.6261 1.6411-4.8764 1.0941-1.2816 2.657-1.9224 4.6889-1.9224s3.5948 0.64081 4.6889 1.9224c1.1253 1.2504 1.688 2.8758 1.688 4.8764v14.301h14.114c2.0631 0 3.6886 0.56267 4.8764 1.688 1.2191 1.0941 1.8287 2.6414 1.8287 4.642 0 2.0318-0.60956 3.6104-1.8287 4.7358-1.1878 1.1253-2.8133 1.688-4.8764 1.688h-14.114v14.254c0 2.0318-0.56267 3.673-1.688 4.9233s-2.6883 1.8756-4.6889 1.8756-3.5636-0.62518-4.6889-1.8756c-1.0941-1.2504-1.6411-2.8915-1.6411-4.9233v-14.254h-14.114c-2.0006 0-3.6261-0.60956-4.8764-1.8287-1.2191-1.2504-1.8287-2.7821-1.8287-4.5951 0-2.0006 0.59393-3.5479 1.7818-4.642 1.2191-1.1253 2.8602-1.688 4.9233-1.688h14.114z"
     fill="#333"
     id="path2" />
  <path
     style="stroke-width:0.25423729"
     d="m 27.460238,57.27572 c -0.48797,-0.155397 -1.367047,-0.762368 -1.953503,-1.348825 -1.744397,-1.744396 -1.862667,-2.479058 -1.862667,-11.570329 v -7.82233 l -8.326271,-0.07644 C 6.1879645,36.373978 6.2743304,36.38776 4.640718,34.754146 3.3798021,33.493231 2.9317653,32.285428 2.9337447,30.152542 2.935819,27.917317 3.5326482,26.5188 4.9438172,25.442449 6.6112068,24.170669 7.5571757,24.050847 15.930237,24.050847 h 7.713831 l 0.0014,-7.817796 c 8.67e-4,-4.78229 0.107763,-8.2126593 0.275305,-8.8347459 0.402903,-1.4959912 1.439885,-2.865057 2.756281,-3.6389557 1.001515,-0.5887825 1.442681,-0.682588 3.195809,-0.6795273 2.782254,0.00486 4.261739,0.8832468 5.55522,3.2982018 0.522155,0.9748724 0.549877,1.3908516 0.622914,9.3465521 l 0.07644,8.326271 h 7.700949 c 8.181806,0 9.216336,0.120297 10.813218,1.257377 0.429079,0.305532 1.095203,1.091468 1.480276,1.746525 0.607988,1.034264 0.699554,1.458695 0.695733,3.224912 -0.0065,2.987227 -0.966308,4.583039 -3.427802,5.698975 -1.073606,0.486728 -1.641212,0.519016 -9.216102,0.524256 l -8.072034,0.0056 v 7.84095 c 0,8.532897 -0.114834,9.439609 -1.410679,11.13855 -1.379985,1.809251 -4.635638,2.614184 -7.230778,1.787745 z"
     id="path3715"
     inkscape:connector-curvature="0" />
</svg>
